<?xml version="1.0" encoding="utf-8"?>
<!-- Generator: Adobe Illustrator 21.0.0, SVG Export Plug-In . SVG Version: 6.00 Build 0)  -->
<svg version="1.1" xmlns="http://www.w3.org/2000/svg" xmlns:xlink="http://www.w3.org/1999/xlink" x="0px" y="0px"
	 viewBox="0 0 500 300" style="enable-background:new 0 0 500 300;" xml:space="preserve">
<style type="text/css">
	.st0{fill:#808285;}
	.st1{fill:#FFB936;}
	.st2{fill:#414042;}
	.st3{fill:#6D6E71;}
	.st4{fill:#58595B;}
	.st5{fill:#FFFFFF;}
	.st6{fill:#E6E7E8;}
	.st7{fill:#00D4FF;}
	.st8{fill:#D1D3D4;}
	.st9{fill:#A7A9AC;}
	.st10{fill:#F1F2F2;}
	.st11{fill:#99EEFF;}
	.st12{fill:#33DDFF;}
	.st13{fill:#66E5FF;}
</style>
<g id="Hardware">
	<g id="bg_1_">
	</g>
	<g id="graphic_1_">
	</g>
	<g id="text_1_">
	</g>
</g>
<g id="Software">
	<g id="bg">
	</g>
	<g id="graphic">
		<g id="XMLID_277_">
			<g>
				<rect x="308.1" y="64.3" class="st0" width="40.5" height="50.4"/>
			</g>
			<g>
				<rect x="311.5" y="68.5" class="st1" width="33.7" height="41.9"/>
			</g>
			<g id="XMLID_295_">
				<rect x="330.8" y="114.2" class="st2" width="16" height="1"/>
			</g>
			<g id="XMLID_285_">
				<polygon class="st2" points="349.1,109.3 348.1,109.3 348.1,64.8 308.6,64.8 308.6,108.8 307.6,108.8 307.6,63.8 349.1,63.8 
									"/>
			</g>
			<g id="XMLID_268_">
				<polygon class="st2" points="345.7,110.9 330.8,110.9 330.8,109.9 344.7,109.9 344.7,69 312,69 312,108.8 311,108.8 311,68 
					345.7,68 				"/>
			</g>
			<g id="XMLID_283_">
				<rect x="318" y="78" class="st2" width="20.8" height="1"/>
			</g>
			<g id="XMLID_282_">
				<rect x="318" y="82.5" class="st2" width="20.8" height="1"/>
			</g>
			<g id="XMLID_281_">
				<rect x="318" y="87" class="st2" width="20.8" height="1"/>
			</g>
			<g id="XMLID_280_">
				<rect x="318" y="91.6" class="st2" width="20.8" height="1"/>
			</g>
			<g id="XMLID_279_">
				<rect x="318" y="96.1" class="st2" width="20.8" height="1"/>
			</g>
			<g id="XMLID_278_">
				<rect x="318" y="100.6" class="st2" width="20.8" height="1"/>
			</g>
		</g>
		<g id="XMLID_120_">
			<g>
				<rect x="159.3" y="137.5" class="st0" width="6.7" height="12.1"/>
			</g>
			<g>
				<rect x="153.8" y="148.2" class="st3" width="18.7" height="2.9"/>
			</g>
			<g id="XMLID_202_">
				<path class="st2" d="M166.5,148.2h-1v-7.9c0-2.1-1.3-3.8-2.9-3.8c-1.6,0-2.9,1.7-2.9,3.8v7.9h-1v-7.9c0-2.6,1.8-4.8,3.9-4.8
					c2.2,0,3.9,2.1,3.9,4.8V148.2z"/>
			</g>
			<g id="XMLID_136_">
				
					<rect x="151.4" y="96.2" transform="matrix(0.7409 -0.6716 0.6716 0.7409 -22.1142 136.1393)" class="st2" width="28" height="1"/>
			</g>
			<g id="XMLID_135_">
				
					<rect x="153.1" y="98.2" transform="matrix(0.7427 -0.6696 0.6696 0.7427 -23.0671 137.28)" class="st2" width="28" height="1"/>
			</g>
			<g id="XMLID_134_">
				
					<rect x="158.8" y="111.2" transform="matrix(0.9578 -0.2875 0.2875 0.9578 -28.8807 51.0279)" class="st2" width="1" height="25.3"/>
			</g>
			<g id="XMLID_133_">
				
					<rect x="156.3" y="112" transform="matrix(0.9586 -0.2848 0.2848 0.9586 -29.0149 49.8114)" class="st2" width="1" height="25.4"/>
			</g>
			<g id="XMLID_790_">
				<g>
					<circle class="st1" cx="194" cy="102.1" r="3.9"/>
				</g>
				<g>
					<circle class="st4" cx="189.7" cy="86.6" r="4.2"/>
				</g>
				<g>
					<polygon class="st3" points="196.4,84.8 182.9,88.7 183.8,92.1 197.6,88.5 					"/>
				</g>
				<g>
					<polygon class="st0" points="183.7,91.3 185.4,104.6 202.7,99.6 197.2,87.4 					"/>
				</g>
				<g id="XMLID_132_">
					<path class="st2" d="M193.9,106.5c-0.7,0-1.4-0.2-2.1-0.5c-1-0.6-1.8-1.5-2.1-2.6l1-0.3c0.2,0.9,0.8,1.6,1.6,2
						c0.8,0.4,1.7,0.5,2.5,0.3c1.8-0.5,2.8-2.4,2.3-4.1l1-0.3c0.3,1.1,0.2,2.3-0.4,3.3c-0.6,1-1.5,1.8-2.6,2.1
						C194.8,106.4,194.3,106.5,193.9,106.5z"/>
				</g>
				<g id="XMLID_131_">
					<polygon class="st2" points="183.2,91.4 182.3,88.3 196.7,84.2 197.6,87.3 196.7,87.5 196.1,85.4 183.5,89 184.2,91.1 					"/>
				</g>
				<g id="XMLID_130_">
					<path class="st2" d="M185,105.3l-1.7-14.1l14.3-4.1l5.8,12.9L185,105.3z M184.3,91.9l1.5,12.1l16.2-4.7l-5-11.1L184.3,91.9z"/>
				</g>
				<g id="XMLID_129_">
					<path class="st2" d="M185.1,88.1c-0.3-1.2-0.2-2.5,0.4-3.6c0.6-1.1,1.6-1.9,2.8-2.3c1.2-0.3,2.5-0.2,3.6,0.4
						c1.1,0.6,1.9,1.6,2.3,2.8l-1,0.3c-0.6-2-2.6-3.1-4.6-2.5c-1,0.3-1.7,0.9-2.2,1.8c-0.5,0.9-0.6,1.9-0.3,2.8L185.1,88.1z"/>
				</g>
			</g>
			<g id="XMLID_409_">
				
					<ellipse transform="matrix(0.2509 -0.968 0.968 0.2509 50.6395 237.9609)" class="st4" cx="179.1" cy="86.3" rx="3.4" ry="3.4"/>
			</g>
			<g id="XMLID_408_">
				<circle class="st4" cx="153.5" cy="109.1" r="3.4"/>
			</g>
			<g id="XMLID_406_">
				<circle class="st4" cx="162.6" cy="139.4" r="3.4"/>
			</g>
			<g id="XMLID_128_">
				<path class="st2" d="M179.1,90.1c-0.3,0-0.7,0-1-0.1c-2.1-0.5-3.3-2.7-2.8-4.7c0.5-2.1,2.7-3.3,4.7-2.8c1,0.3,1.8,0.9,2.4,1.8
					c0.5,0.9,0.7,1.9,0.4,2.9c-0.3,1-0.9,1.8-1.8,2.4C180.4,90,179.8,90.1,179.1,90.1z M179.1,83.4c-1.3,0-2.5,0.9-2.8,2.2
					c-0.4,1.5,0.5,3.1,2.1,3.5c1.5,0.4,3.1-0.5,3.5-2.1l0,0c0.2-0.7,0.1-1.5-0.3-2.2c-0.4-0.7-1-1.1-1.8-1.3
					C179.5,83.4,179.3,83.4,179.1,83.4z"/>
			</g>
			<g id="XMLID_412_">
				<ellipse transform="matrix(0.2509 -0.968 0.968 0.2509 50.632 237.9545)" class="st5" cx="179.1" cy="86.3" rx="1.5" ry="1.5"/>
			</g>
			<g id="XMLID_411_">
				<circle class="st5" cx="153.5" cy="109.1" r="1.5"/>
			</g>
			<g id="XMLID_410_">
				<circle class="st5" cx="162.6" cy="139.4" r="1.5"/>
			</g>
			<g id="XMLID_816_">
				<path class="st2" d="M179.1,88.3c-0.2,0-0.3,0-0.5-0.1c-1.1-0.3-1.7-1.4-1.4-2.5c0.1-0.5,0.5-1,0.9-1.2c0.5-0.3,1-0.3,1.5-0.2
					c0.5,0.1,1,0.5,1.2,0.9c0.3,0.5,0.3,1,0.2,1.5c-0.1,0.5-0.5,1-0.9,1.2C179.8,88.2,179.4,88.3,179.1,88.3z M179.1,85.3
					c-0.2,0-0.4,0-0.5,0.1c-0.2,0.1-0.4,0.4-0.5,0.6c-0.1,0.5,0.2,1.1,0.7,1.2c0.3,0.1,0.5,0,0.8-0.1c0.2-0.1,0.4-0.4,0.5-0.6
					c0.1-0.3,0-0.5-0.1-0.8s-0.4-0.4-0.6-0.5C179.2,85.3,179.2,85.3,179.1,85.3z"/>
			</g>
			<g id="XMLID_204_">
				<path class="st2" d="M153.5,113c-2.1,0-3.9-1.7-3.9-3.9s1.7-3.9,3.9-3.9c2.1,0,3.9,1.7,3.9,3.9S155.7,113,153.5,113z
					 M153.5,106.3c-1.6,0-2.9,1.3-2.9,2.9c0,1.6,1.3,2.9,2.9,2.9c1.6,0,2.9-1.3,2.9-2.9C156.4,107.6,155.1,106.3,153.5,106.3z"/>
			</g>
			<g id="XMLID_203_">
				<path class="st2" d="M153.5,111.2c-1.1,0-2-0.9-2-2s0.9-2,2-2c1.1,0,2,0.9,2,2S154.6,111.2,153.5,111.2z M153.5,108.1
					c-0.6,0-1,0.5-1,1s0.5,1,1,1c0.6,0,1-0.5,1-1S154.1,108.1,153.5,108.1z"/>
			</g>
			<g id="XMLID_201_">
				<path class="st2" d="M162.6,143.3c-2.1,0-3.9-1.7-3.9-3.9c0-2.1,1.7-3.9,3.9-3.9c2.1,0,3.9,1.7,3.9,3.9
					C166.5,141.5,164.8,143.3,162.6,143.3z M162.6,136.5c-1.6,0-2.9,1.3-2.9,2.9c0,1.6,1.3,2.9,2.9,2.9c1.6,0,2.9-1.3,2.9-2.9
					C165.5,137.8,164.2,136.5,162.6,136.5z"/>
			</g>
			<g id="XMLID_127_">
				<path class="st2" d="M162.6,141.4c-1.1,0-2-0.9-2-2c0-1.1,0.9-2,2-2c1.1,0,2,0.9,2,2C164.7,140.5,163.8,141.4,162.6,141.4z
					 M162.6,138.4c-0.6,0-1,0.5-1,1c0,0.6,0.5,1,1,1c0.6,0,1-0.5,1-1C163.7,138.8,163.2,138.4,162.6,138.4z"/>
			</g>
			<g id="XMLID_126_">
				
					<rect x="164.3" y="97.7" transform="matrix(0.7987 -0.6018 0.6018 0.7987 -26.3941 119.0974)" class="st2" width="1" height="2.6"/>
			</g>
			<g id="XMLID_125_">
				
					<rect x="156.9" y="123.2" transform="matrix(0.9453 -0.3262 0.3262 0.9453 -31.715 58.33)" class="st2" width="2.4" height="1"/>
			</g>
			<g id="XMLID_124_">
				<polygon class="st2" points="154.3,151 153.3,151 153.3,147.7 170.1,147.7 170.1,148.7 154.3,148.7 				"/>
			</g>
			<g id="XMLID_123_">
				
					<rect x="181.1" y="88.1" transform="matrix(0.2509 -0.968 0.968 0.2509 48.8832 243.2633)" class="st2" width="1" height="3.8"/>
			</g>
			<g id="XMLID_122_">
				<rect x="183.1" y="81.9" transform="matrix(0.2508 -0.968 0.968 0.2508 55.919 240.8688)" class="st2" width="1" height="4.7"/>
			</g>
		</g>
		<g id="XMLID_61_">
			<g>
				<path class="st5" d="M174.4,110.3c-0.4,0-0.8,0.4-0.8,0.8v35l60,0.1v-35.9H174.4z"/>
			</g>
			<g>
				<rect x="176.6" y="113.9" class="st4" width="52.5" height="30.5"/>
			</g>
			<g id="XMLID_60_">
				<polygon class="st2" points="227.2,144.8 176.1,144.8 176.1,113.4 220.6,113.4 220.6,114.4 177.1,114.4 177.1,143.8 
					227.2,143.8 				"/>
			</g>
			<g>
				<path class="st6" d="M230,146.1h-59.1l0.4,2.7c0.2,1.5,1.5,2.5,3,2.5h55.8L230,146.1z"/>
			</g>
			<g id="XMLID_45_">
				<path class="st2" d="M228.6,151.8h-54.3c-1.7,0-3.2-1.2-3.5-2.9l-0.5-3.3H227v1h-55.5l0.3,2.1c0.2,1.2,1.2,2.1,2.5,2.1h54.3
					V151.8z"/>
			</g>
			<g id="XMLID_44_">
				<rect x="184.7" y="116.2" class="st5" width="16.2" height="1"/>
			</g>
			<g id="XMLID_43_">
				<rect x="202.2" y="116.2" class="st7" width="2.6" height="1"/>
			</g>
			<g id="XMLID_42_">
				<rect x="206.3" y="116.2" class="st5" width="14.1" height="1"/>
			</g>
			<g id="XMLID_41_">
				<rect x="189.2" y="119.6" class="st5" width="5.5" height="1"/>
			</g>
			<g id="XMLID_40_">
				<rect x="196.6" y="119.6" class="st7" width="7" height="1"/>
			</g>
			<g id="XMLID_39_">
				<rect x="186.5" y="123.1" class="st1" width="5.8" height="1"/>
			</g>
			<g id="XMLID_38_">
				<rect x="193.5" y="123.1" class="st5" width="16.3" height="1"/>
			</g>
			<g id="XMLID_37_">
				<rect x="210.8" y="123.1" class="st5" width="1.9" height="1"/>
			</g>
			<g id="XMLID_36_">
				<rect x="214.1" y="123.1" class="st5" width="1.9" height="1"/>
			</g>
			<g id="XMLID_35_">
				<rect x="184.7" y="126.6" class="st5" width="13" height="1"/>
			</g>
			<g id="XMLID_34_">
				<rect x="198.9" y="126.6" class="st7" width="4.6" height="1"/>
			</g>
			<g id="XMLID_104_">
				<rect x="205.2" y="126.6" class="st5" width="15.2" height="1"/>
			</g>
			<g id="XMLID_103_">
				<rect x="186.5" y="133.5" class="st5" width="9.1" height="1"/>
			</g>
			<g id="XMLID_102_">
				<rect x="197.6" y="133.5" class="st7" width="5.1" height="1"/>
			</g>
			<g id="XMLID_31_">
				<rect x="205.1" y="133.5" class="st5" width="15.3" height="1"/>
			</g>
			<g id="XMLID_29_">
				<rect x="189.2" y="137" class="st5" width="16.2" height="1"/>
			</g>
			<g id="XMLID_28_">
				<rect x="206.4" y="137" class="st1" width="4.4" height="1"/>
			</g>
			<g id="XMLID_27_">
				<rect x="189.2" y="130" class="st5" width="17.2" height="1"/>
			</g>
			<g id="XMLID_26_">
				<rect x="207.3" y="130" class="st1" width="2.7" height="1"/>
			</g>
			<g id="XMLID_25_">
				<rect x="184.7" y="140.4" class="st5" width="13.1" height="1"/>
			</g>
			<g id="XMLID_24_">
				<rect x="198.9" y="140.4" class="st5" width="12.8" height="1"/>
			</g>
			<g id="XMLID_23_">
				<rect x="215" y="140.4" class="st7" width="7.3" height="1"/>
			</g>
			<g id="XMLID_21_">
				<rect x="200.6" y="147.7" class="st2" width="9.2" height="1"/>
			</g>
			<g id="XMLID_20_">
				<path class="st2" d="M174.1,146.1h-1v-35c0-0.7,0.6-1.3,1.3-1.3h46.2v1h-46.2c-0.2,0-0.3,0.1-0.3,0.3V146.1z"/>
			</g>
			<g id="XMLID_91_">
				<rect x="179.5" y="116.2" class="st1" width="0.8" height="1"/>
			</g>
			<g id="XMLID_90_">
				<rect x="179.5" y="118.8" class="st1" width="0.8" height="1"/>
			</g>
			<g id="XMLID_19_">
				<rect x="179.5" y="121.4" class="st1" width="0.8" height="1"/>
			</g>
			<g id="XMLID_88_">
				<rect x="179.5" y="124" class="st1" width="0.8" height="1"/>
			</g>
			<g id="XMLID_87_">
				<rect x="179.5" y="126.6" class="st1" width="0.8" height="1"/>
			</g>
			<g id="XMLID_86_">
				<rect x="179.5" y="129.2" class="st1" width="0.8" height="1"/>
			</g>
			<g id="XMLID_85_">
				<rect x="179.5" y="131.8" class="st1" width="0.8" height="1"/>
			</g>
			<g id="XMLID_18_">
				<rect x="179.5" y="134.4" class="st1" width="0.8" height="1"/>
			</g>
			<g id="XMLID_67_">
				<rect x="179.5" y="137" class="st1" width="0.8" height="1"/>
			</g>
			<g id="XMLID_17_">
				<rect x="179.5" y="139.6" class="st1" width="0.8" height="1"/>
			</g>
			<g id="XMLID_62_">
				<rect x="179.5" y="142.2" class="st1" width="0.8" height="1"/>
			</g>
		</g>
		<g id="XMLID_156_">
			<g>
				<path class="st5" d="M246,141.1h-22c-1,0-1.8-0.8-1.8-1.8v-6.1H246V141.1z"/>
			</g>
			<g>
				<path class="st0" d="M299.3,93.4h-76c-0.7,0-1.2,0.6-1.2,1.2v37.2c0,0.7,0.6,1.2,1.2,1.2h4.9h72.3V94.7
					C300.6,94,300,93.4,299.3,93.4z"/>
			</g>
			<g>
				<polygon class="st4" points="225,96.3 225,130.4 235,130.4 297.7,130.4 297.7,96.3 				"/>
			</g>
			<g id="XMLID_16_">
				<polygon class="st2" points="235,130.9 224.5,130.9 224.5,95.8 298.2,95.8 298.2,108.8 297.2,108.8 297.2,96.8 225.5,96.8 
					225.5,129.9 235,129.9 				"/>
			</g>
			<g id="XMLID_15_">
				<path class="st2" d="M227.2,141.6h-3.9c-1,0-1.7-0.8-1.7-1.7V94.7c0-1,0.8-1.7,1.7-1.7h76c1,0,1.7,0.8,1.7,1.7v14.1h-1V94.7
					c0-0.4-0.3-0.7-0.7-0.7h-76c-0.4,0-0.7,0.3-0.7,0.7v45.2c0,0.4,0.3,0.7,0.7,0.7h3.9V141.6z"/>
			</g>
			<g id="XMLID_157_">
				<rect x="222.1" y="132.7" class="st2" width="7.1" height="1"/>
			</g>
		</g>
		<g id="XMLID_48_">
			<g id="XMLID_83_">
				<rect x="235" y="100" class="st5" width="24.5" height="1"/>
			</g>
			<g id="XMLID_82_">
				<rect x="261.5" y="100" class="st1" width="3.9" height="1"/>
			</g>
			<g id="XMLID_81_">
				<rect x="267.7" y="100" class="st5" width="24.1" height="1"/>
			</g>
			<g id="XMLID_80_">
				<rect x="241.8" y="103.7" class="st7" width="8.4" height="1"/>
			</g>
			<g id="XMLID_14_">
				<rect x="253" y="103.7" class="st5" width="10.5" height="1"/>
			</g>
			<g id="XMLID_13_">
				<rect x="237.8" y="107.4" class="st5" width="8.7" height="1"/>
			</g>
			<g id="XMLID_12_">
				<rect x="248.4" y="107.4" class="st5" width="24.6" height="1"/>
			</g>
			<g id="XMLID_11_">
				<rect x="274.8" y="107.4" class="st1" width="4.6" height="1"/>
			</g>
			<g id="XMLID_10_">
				<rect x="281.5" y="107.4" class="st5" width="11.9" height="1"/>
			</g>
			<g id="XMLID_74_">
				<rect x="235" y="111.1" class="st5" width="19.6" height="1"/>
			</g>
			<g id="XMLID_73_">
				<rect x="256.4" y="111.1" class="st7" width="3.5" height="1"/>
			</g>
			<g id="XMLID_72_">
				<rect x="261.7" y="111.1" class="st5" width="4.8" height="1"/>
			</g>
			<g id="XMLID_71_">
				<rect x="237.8" y="118.6" class="st1" width="13.7" height="1"/>
			</g>
			<g id="XMLID_70_">
				<rect x="254.6" y="118.6" class="st7" width="7.7" height="1"/>
			</g>
			<g id="XMLID_69_">
				<rect x="265.8" y="118.6" class="st5" width="2" height="1"/>
			</g>
			<g id="XMLID_68_">
				<rect x="241.8" y="122.3" class="st5" width="24.5" height="1"/>
			</g>
			<g id="XMLID_66_">
				<rect x="241.8" y="114.9" class="st5" width="25.9" height="1"/>
			</g>
			<g id="XMLID_64_">
				<rect x="235" y="126" class="st5" width="19.7" height="1"/>
			</g>
			<g id="XMLID_63_">
				<rect x="256.4" y="126" class="st7" width="10.4" height="1"/>
			</g>
			<g id="XMLID_9_">
				<rect x="229.4" y="98.5" class="st7" width="0.9" height="1"/>
			</g>
			<g id="XMLID_58_">
				<rect x="229.4" y="101.3" class="st7" width="0.9" height="1"/>
			</g>
			<g id="XMLID_57_">
				<rect x="229.4" y="104.1" class="st7" width="0.9" height="1"/>
			</g>
			<g id="XMLID_56_">
				<rect x="229.4" y="106.9" class="st7" width="0.9" height="1"/>
			</g>
			<g id="XMLID_55_">
				<rect x="229.4" y="109.6" class="st7" width="0.9" height="1"/>
			</g>
			<g id="XMLID_54_">
				<rect x="229.4" y="112.4" class="st7" width="0.9" height="1"/>
			</g>
			<g id="XMLID_53_">
				<rect x="229.4" y="115.2" class="st7" width="0.9" height="1"/>
			</g>
			<g id="XMLID_52_">
				<rect x="229.4" y="118" class="st7" width="0.9" height="1"/>
			</g>
			<g id="XMLID_51_">
				<rect x="229.4" y="120.8" class="st7" width="0.9" height="1"/>
			</g>
			<g id="XMLID_50_">
				<rect x="229.4" y="123.6" class="st7" width="0.9" height="1"/>
			</g>
			<g id="XMLID_49_">
				<rect x="229.4" y="126.4" class="st7" width="0.9" height="1"/>
			</g>
		</g>
		<g id="XMLID_163_">
			<g>
				<path class="st5" d="M328.5,110.3h-61.4c-0.4,0-0.8,0.4-0.8,0.8v35.1l63-0.1v-35C329.3,110.7,328.9,110.3,328.5,110.3z"/>
			</g>
			<g>
				<polygon class="st4" points="269.4,113.9 269.4,131.4 276.8,144.3 325.9,144.3 325.9,113.9 				"/>
			</g>
			<g id="XMLID_351_">
				<polygon class="st2" points="326.4,144.8 277.8,144.8 277.8,143.8 325.4,143.8 325.4,114.4 269.9,114.4 269.9,129.9 
					268.9,129.9 268.9,113.4 326.4,113.4 				"/>
			</g>
			<g>
				<path class="st6" d="M276.8,146.1l-0.1,5.2h51.7c1.7,0,3.1-1.2,3.4-2.9l0.4-2.3H276.8z"/>
			</g>
			<g id="XMLID_199_">
				<path class="st2" d="M328.5,151.8h-50.7v-1h50.7c1.4,0,2.7-1,2.9-2.5l0.3-1.7h-53.8v-1h55l-0.5,2.9
					C332,150.4,330.4,151.8,328.5,151.8z"/>
			</g>
			<g id="XMLID_8_">
				<rect x="277.4" y="116.2" class="st5" width="16.2" height="1"/>
			</g>
			<g id="XMLID_197_">
				<rect x="294.9" y="116.2" class="st1" width="2.6" height="1"/>
			</g>
			<g id="XMLID_196_">
				<rect x="299" y="116.2" class="st5" width="16" height="1"/>
			</g>
			<g id="XMLID_195_">
				<rect x="281.9" y="119.6" class="st5" width="5.5" height="1"/>
			</g>
			<g id="XMLID_194_">
				<rect x="289.3" y="119.6" class="st7" width="7" height="1"/>
			</g>
			<g id="XMLID_193_">
				<rect x="279.2" y="123.1" class="st1" width="5.8" height="1"/>
			</g>
			<g id="XMLID_192_">
				<rect x="286.2" y="123.1" class="st5" width="16.3" height="1"/>
			</g>
			<g id="XMLID_191_">
				<rect x="303.5" y="123.1" class="st7" width="1.9" height="1"/>
			</g>
			<g id="XMLID_190_">
				<rect x="306.8" y="123.1" class="st5" width="1.9" height="1"/>
			</g>
			<g id="XMLID_189_">
				<rect x="277.4" y="126.6" class="st5" width="13" height="1"/>
			</g>
			<g id="XMLID_188_">
				<rect x="291.6" y="126.6" class="st1" width="4.6" height="1"/>
			</g>
			<g id="XMLID_187_">
				<rect x="297.9" y="126.6" class="st5" width="16.7" height="1"/>
			</g>
			<g id="XMLID_186_">
				<rect x="279.2" y="133.5" class="st5" width="9.1" height="1"/>
			</g>
			<g id="XMLID_185_">
				<rect x="290.4" y="133.5" class="st7" width="5.1" height="1"/>
			</g>
			<g id="XMLID_184_">
				<rect x="297.8" y="133.5" class="st5" width="22.4" height="1"/>
			</g>
			<g id="XMLID_183_">
				<rect x="281.9" y="137" class="st5" width="16.2" height="1"/>
			</g>
			<g id="XMLID_182_">
				<rect x="299.1" y="137" class="st1" width="4.4" height="1"/>
			</g>
			<g id="XMLID_2_">
				<rect x="281.9" y="130" class="st5" width="17.2" height="1"/>
			</g>
			<g id="XMLID_180_">
				<rect x="300" y="130" class="st7" width="2.7" height="1"/>
			</g>
			<g id="XMLID_179_">
				<rect x="277.4" y="140.4" class="st5" width="13.1" height="1"/>
			</g>
			<g id="XMLID_178_">
				<rect x="291.6" y="140.4" class="st5" width="12.8" height="1"/>
			</g>
			<g id="XMLID_177_">
				<rect x="307.7" y="140.4" class="st1" width="7.3" height="1"/>
			</g>
			<g id="XMLID_176_">
				<rect x="293.3" y="147.7" class="st2" width="9.2" height="1"/>
			</g>
			<g id="XMLID_175_">
				<path class="st2" d="M329.8,146.1h-1v-35c0-0.2-0.1-0.3-0.3-0.3h-61.4c-0.2,0-0.3,0.1-0.3,0.3v18.6h-1v-18.6
					c0-0.7,0.6-1.3,1.3-1.3h61.4c0.7,0,1.3,0.6,1.3,1.3V146.1z"/>
			</g>
			<g id="XMLID_1_">
				<rect x="272.2" y="116.2" class="st1" width="0.8" height="1"/>
			</g>
			<g id="XMLID_173_">
				<rect x="272.2" y="119" class="st1" width="0.8" height="1"/>
			</g>
			<g id="XMLID_172_">
				<rect x="272.2" y="121.8" class="st1" width="0.8" height="1"/>
			</g>
			<g id="XMLID_171_">
				<rect x="272.2" y="124.7" class="st1" width="0.8" height="1"/>
			</g>
			<g id="XMLID_170_">
				<rect x="272.2" y="127.5" class="st1" width="0.8" height="1"/>
			</g>
			<g id="XMLID_169_">
				<rect x="272.2" y="130.3" class="st1" width="0.8" height="1"/>
			</g>
			<g id="XMLID_407_">
				<rect x="272.2" y="133.2" class="st1" width="0.8" height="1"/>
			</g>
		</g>
		<g id="XMLID_137_">
			<g>
				<rect x="62.3" y="146.3" class="st8" width="85.8" height="7.9"/>
			</g>
			<g>
				<rect x="62.3" y="150.3" class="st9" width="85.8" height="3.9"/>
			</g>
			<g>
				<polygon class="st10" points="66.2,47.6 66.2,146.3 147.1,146.3 147.2,47.7 				"/>
			</g>
			<g>
				<rect x="70.8" y="52.3" class="st11" width="72.4" height="94"/>
			</g>
			<g>
				<g>
					<polygon class="st12" points="143.1,128.5 143.1,108.4 105.2,146.3 125.3,146.3 					"/>
				</g>
				<g>
					<polygon class="st12" points="143.1,55 70.8,127.4 70.8,146.3 76.5,146.3 143.1,79.7 					"/>
				</g>
				<g>
					<polygon class="st12" points="87.5,52.3 70.8,69 70.8,118 136.5,52.3 					"/>
				</g>
			</g>
			<g id="XMLID_321_">
				<polygon class="st2" points="66.7,146.3 65.7,146.3 65.7,47.1 147.7,47.2 147.6,146.1 146.6,146.1 146.7,48.2 66.7,48.1 				"/>
			</g>
			<g id="XMLID_270_">
				<rect x="68.6" y="54.9" class="st2" width="76.1" height="1"/>
			</g>
			<g id="XMLID_269_">
				<rect x="68.6" y="58.1" class="st2" width="76.1" height="1"/>
			</g>
			<g id="XMLID_271_">
				<rect x="68.6" y="61.4" class="st2" width="76.1" height="1"/>
			</g>
			<g id="XMLID_273_">
				<rect x="68.6" y="64.6" class="st2" width="76.1" height="1"/>
			</g>
			<g id="XMLID_274_">
				<rect x="68.6" y="67.9" class="st2" width="76.1" height="1"/>
			</g>
			<g id="XMLID_276_">
				<rect x="68.6" y="71.2" class="st2" width="76.1" height="1"/>
			</g>
			<g id="XMLID_286_">
				<rect x="68.6" y="74.4" class="st2" width="76.1" height="1"/>
			</g>
			<g id="XMLID_287_">
				<rect x="68.6" y="77.7" class="st2" width="76.1" height="1"/>
			</g>
			<g id="XMLID_288_">
				<rect x="68.6" y="80.9" class="st2" width="76.1" height="1"/>
			</g>
			<g id="XMLID_289_">
				<rect x="68.6" y="84.2" class="st2" width="76.1" height="1"/>
			</g>
			<g id="XMLID_290_">
				<rect x="68.6" y="87.4" class="st2" width="76.1" height="1"/>
			</g>
			<g id="XMLID_291_">
				<rect x="68.6" y="90.7" class="st2" width="76.1" height="1"/>
			</g>
			<g id="XMLID_292_">
				<rect x="68.6" y="93.9" class="st2" width="76.1" height="1"/>
			</g>
			<g id="XMLID_413_">
				<rect x="68.6" y="95.4" class="st2" width="76.1" height="1"/>
			</g>
			<g id="XMLID_294_">
				<rect x="79.4" y="48.2" class="st2" width="1" height="46.5"/>
			</g>
			<g id="XMLID_293_">
				<rect x="131.8" y="48.2" class="st2" width="1" height="46.5"/>
			</g>
			<g>
				<polygon class="st2" points="131.2,154.7 61.8,154.7 61.8,145.8 148.6,145.8 148.6,150.3 147.6,150.3 147.6,146.8 62.8,146.8 
					62.8,153.7 131.2,153.7 				"/>
			</g>
		</g>
		<g id="XMLID_323_">
			<g>
				<rect x="340.4" y="155.4" class="st5" width="41.3" height="14.9"/>
			</g>
			<g>
				<rect x="340.4" y="170.1" class="st10" width="41.3" height="14.9"/>
			</g>
			<g>
				<rect x="340.4" y="184.8" class="st5" width="41.3" height="14.9"/>
			</g>
			<g>
				<rect x="340.4" y="199.5" class="st10" width="41.3" height="14.9"/>
			</g>
			<g>
				<rect x="340.6" y="214.4" class="st3" width="41.1" height="2.1"/>
			</g>
			<g>
				<rect x="147.5" y="155.3" class="st10" width="31.3" height="59.2"/>
			</g>
			<g>
				<rect x="147.5" y="214.4" class="st3" width="31.4" height="2.1"/>
			</g>
			<g>
				<rect x="143.8" y="155.3" class="st3" width="3.7" height="67.4"/>
			</g>
			<g>
				<rect x="178.8" y="155.3" class="st3" width="3.7" height="67.4"/>
			</g>
			<g>
				<rect x="336.8" y="155.3" class="st3" width="3.7" height="67.4"/>
			</g>
			<g>
				<rect x="381.8" y="155.3" class="st3" width="3.7" height="67.4"/>
			</g>
			<g>
				<rect x="133" y="151" class="st10" width="262.3" height="4.2"/>
			</g>
			<g>
				<rect x="133" y="153.2" class="st8" width="262.3" height="2.1"/>
			</g>
			<g id="XMLID_345_">
				<path class="st2" d="M394.3,155.8H278.3v-1h116.1c0.2,0,0.4-0.2,0.4-0.4v-2c0-0.2-0.2-0.4-0.4-0.4H278.3v-1h116.1
					c0.8,0,1.4,0.6,1.4,1.4v2C395.8,155.1,395.1,155.8,394.3,155.8z"/>
			</g>
			<g id="XMLID_344_">
				<path class="st2" d="M226.8,155.8H134c-0.8,0-1.4-0.6-1.4-1.4v-2c0-0.8,0.6-1.4,1.4-1.4h92.7v1H134c-0.2,0-0.4,0.2-0.4,0.4v2
					c0,0.2,0.2,0.4,0.4,0.4h92.8V155.8z"/>
			</g>
			<g id="XMLID_343_">
				<rect x="143.3" y="155.3" class="st2" width="1" height="67.4"/>
			</g>
			<g id="XMLID_342_">
				<rect x="147" y="155.3" class="st2" width="1" height="67.4"/>
			</g>
			<g id="XMLID_341_">
				<rect x="178.4" y="155.3" class="st2" width="1" height="67.4"/>
			</g>
			<g id="XMLID_340_">
				<rect x="182.1" y="155.3" class="st2" width="1" height="67.4"/>
			</g>
			<g id="XMLID_339_">
				<rect x="336.4" y="155.3" class="st2" width="1" height="67.4"/>
			</g>
			<g id="XMLID_338_">
				<rect x="340.1" y="155.3" class="st2" width="1" height="67.4"/>
			</g>
			<g id="XMLID_337_">
				<rect x="381.2" y="155.3" class="st2" width="1" height="67.4"/>
			</g>
			<g id="XMLID_336_">
				<rect x="384.9" y="155.3" class="st2" width="1" height="67.4"/>
			</g>
			<g id="XMLID_335_">
				<rect x="340.6" y="169.4" class="st2" width="41.1" height="1"/>
			</g>
			<g id="XMLID_334_">
				<rect x="340.6" y="184.2" class="st2" width="41.1" height="1"/>
			</g>
			<g id="XMLID_333_">
				<rect x="340.6" y="198.6" class="st2" width="41.1" height="1"/>
			</g>
			<g id="XMLID_332_">
				<rect x="340.6" y="213.9" class="st2" width="41.1" height="1"/>
			</g>
			<g id="XMLID_331_">
				<rect x="147.5" y="213.9" class="st2" width="31.4" height="1"/>
			</g>
			<g id="XMLID_330_">
				<rect x="340.6" y="216" class="st2" width="41.1" height="1"/>
			</g>
			<g id="XMLID_329_">
				<rect x="147.5" y="216" class="st2" width="31.4" height="1"/>
			</g>
			<g id="XMLID_328_">
				<rect x="357.3" y="162" class="st2" width="7.6" height="1"/>
			</g>
			<g id="XMLID_327_">
				<rect x="150.9" y="183.9" class="st2" width="1" height="7.6"/>
			</g>
			<g id="XMLID_326_">
				<rect x="357.3" y="177.2" class="st2" width="7.6" height="1"/>
			</g>
			<g id="XMLID_325_">
				<rect x="357.3" y="191.9" class="st2" width="7.6" height="1"/>
			</g>
			<g id="XMLID_324_">
				<rect x="357.3" y="206.6" class="st2" width="7.6" height="1"/>
			</g>
		</g>
		<g id="XMLID_5_">
			<rect x="29.9" y="222.6" class="st2" width="437.3" height="1"/>
		</g>
		<g id="XMLID_350_">
			<g>
				<rect x="347.5" y="110.3" class="st0" width="1.6" height="29.6"/>
			</g>
			<g>
				<rect x="381" y="110.3" class="st0" width="1.6" height="41.1"/>
			</g>
			<g>
				<rect x="364" y="110.3" class="st0" width="1.6" height="41.1"/>
			</g>
			<g id="XMLID_399_">
				<polygon class="st2" points="349.5,132.6 348.5,132.6 348.5,110.8 348,110.8 348,132.6 347,132.6 347,109.8 349.5,109.8 				"/>
			</g>
			<g id="XMLID_398_">
				<path class="st2" d="M366.2,151.9h-2.6v-42.1h2.6V151.9z M364.7,150.9h0.6v-40.1h-0.6V150.9z"/>
			</g>
			<g id="XMLID_397_">
				<path class="st2" d="M382.9,151.9h-2.6v-42.1h2.6V151.9z M381.3,150.9h0.6v-40.1h-0.6V150.9z"/>
			</g>
			<g id="XMLID_396_">
				<rect x="349" y="112.6" class="st2" width="15.1" height="0.8"/>
			</g>
			<g id="XMLID_395_">
				<rect x="349" y="115.8" class="st2" width="15.1" height="0.8"/>
			</g>
			<g id="XMLID_394_">
				<rect x="349" y="119" class="st2" width="15.1" height="0.8"/>
			</g>
			<g id="XMLID_393_">
				<rect x="349" y="122.2" class="st2" width="15.1" height="0.8"/>
			</g>
			<g id="XMLID_392_">
				<rect x="349" y="125.4" class="st2" width="15.1" height="0.8"/>
			</g>
			<g id="XMLID_391_">
				<rect x="349" y="128.6" class="st2" width="15.1" height="0.8"/>
			</g>
			<g id="XMLID_388_">
				<rect x="349" y="131.8" class="st2" width="15.1" height="0.8"/>
			</g>
			<g id="XMLID_387_">
				<rect x="354" y="135" class="st2" width="10.2" height="0.8"/>
			</g>
			<g id="XMLID_386_">
				<rect x="356.1" y="138.1" class="st2" width="8" height="0.8"/>
			</g>
			<g id="XMLID_385_">
				<rect x="356.7" y="141.3" class="st2" width="7.5" height="0.8"/>
			</g>
			<g id="XMLID_384_">
				<rect x="356.1" y="144.5" class="st2" width="8" height="0.8"/>
			</g>
			<g id="XMLID_383_">
				<rect x="354" y="147.7" class="st2" width="10.2" height="0.8"/>
			</g>
			<g id="XMLID_382_">
				<rect x="365.7" y="112.6" class="st2" width="15.2" height="0.8"/>
			</g>
			<g id="XMLID_381_">
				<rect x="365.7" y="115.8" class="st2" width="14.9" height="0.8"/>
			</g>
			<g id="XMLID_380_">
				<rect x="365.7" y="119" class="st2" width="15.2" height="0.8"/>
			</g>
			<g id="XMLID_379_">
				<rect x="365.7" y="122.2" class="st2" width="15.2" height="0.8"/>
			</g>
			<g id="XMLID_378_">
				<rect x="365.7" y="125.4" class="st2" width="15.2" height="0.8"/>
			</g>
			<g id="XMLID_377_">
				<rect x="365.7" y="128.6" class="st2" width="15.2" height="0.8"/>
			</g>
			<g id="XMLID_376_">
				<rect x="365.7" y="131.8" class="st2" width="15.2" height="0.8"/>
			</g>
			<g id="XMLID_375_">
				<rect x="365.7" y="135" class="st2" width="15.2" height="0.8"/>
			</g>
			<g id="XMLID_374_">
				<rect x="365.7" y="138.1" class="st2" width="15.2" height="0.8"/>
			</g>
			<g id="XMLID_373_">
				<rect x="365.7" y="141.3" class="st2" width="15.2" height="0.8"/>
			</g>
			<g id="XMLID_372_">
				<rect x="365.7" y="144.5" class="st2" width="15.2" height="0.8"/>
			</g>
			<g id="XMLID_371_">
				<rect x="365.7" y="147.7" class="st2" width="15.2" height="0.8"/>
			</g>
			<g id="XMLID_370_">
				<rect x="349.9" y="114.8" class="st1" width="13.4" height="1"/>
			</g>
			<g id="XMLID_369_">
				<rect x="349.9" y="118" class="st2" width="13.4" height="1"/>
			</g>
			<g id="XMLID_368_">
				<rect x="349.9" y="121.2" class="st1" width="13.4" height="1"/>
			</g>
			<g id="XMLID_367_">
				<rect x="349.9" y="124.4" class="st2" width="13.4" height="1"/>
			</g>
			<g id="XMLID_366_">
				<rect x="349.9" y="130.8" class="st7" width="13.4" height="1"/>
			</g>
			<g id="XMLID_365_">
				<rect x="355.1" y="134" class="st2" width="8.2" height="1"/>
			</g>
			<g id="XMLID_364_">
				<rect x="356.7" y="137.2" class="st2" width="6.6" height="1"/>
			</g>
			<g id="XMLID_363_">
				<rect x="356.1" y="146.8" class="st2" width="7.2" height="1"/>
			</g>
			<g id="XMLID_362_">
				<rect x="366.6" y="114.8" class="st7" width="13.4" height="1"/>
			</g>
			<g id="XMLID_361_">
				<rect x="366.6" y="118" class="st7" width="13.4" height="1"/>
			</g>
			<g id="XMLID_360_">
				<rect x="366.6" y="121.2" class="st7" width="13.4" height="1"/>
			</g>
			<g id="XMLID_359_">
				<rect x="366.6" y="124.4" class="st3" width="13.4" height="1"/>
			</g>
			<g id="XMLID_358_">
				<rect x="366.6" y="127.6" class="st3" width="13.4" height="1"/>
			</g>
			<g id="XMLID_357_">
				<rect x="366.6" y="130.8" class="st1" width="13.4" height="1"/>
			</g>
			<g id="XMLID_356_">
				<rect x="366.6" y="134" class="st2" width="13.4" height="1"/>
			</g>
			<g id="XMLID_355_">
				<rect x="366.6" y="137.2" class="st1" width="13.4" height="1"/>
			</g>
			<g id="XMLID_354_">
				<rect x="366.6" y="140.4" class="st2" width="13.4" height="1"/>
			</g>
			<g id="XMLID_353_">
				<rect x="366.6" y="143.6" class="st2" width="13.4" height="1"/>
			</g>
			<g id="XMLID_352_">
				<rect x="366.6" y="146.8" class="st2" width="13.4" height="1"/>
			</g>
		</g>
		<g id="XMLID_346_">
			<g id="XMLID_138_">
				<circle class="st5" cx="347.5" cy="141.7" r="9.2"/>
			</g>
			<g id="XMLID_349_">
				<path class="st2" d="M347.5,151.4c-5.4,0-9.7-4.4-9.7-9.7s4.4-9.7,9.7-9.7c5.4,0,9.7,4.4,9.7,9.7S352.8,151.4,347.5,151.4z
					 M347.5,133c-4.8,0-8.7,3.9-8.7,8.7s3.9,8.7,8.7,8.7s8.7-3.9,8.7-8.7S352.3,133,347.5,133z"/>
			</g>
			<g id="XMLID_266_">
				<circle class="st7" cx="347.5" cy="141.7" r="3.6"/>
			</g>
			<g id="XMLID_348_">
				<path class="st2" d="M347.5,145.8c-2.3,0-4.1-1.8-4.1-4.1s1.8-4.1,4.1-4.1c2.3,0,4.1,1.8,4.1,4.1S349.7,145.8,347.5,145.8z
					 M347.5,138.6c-1.7,0-3.1,1.4-3.1,3.1s1.4,3.1,3.1,3.1c1.7,0,3.1-1.4,3.1-3.1S349.2,138.6,347.5,138.6z"/>
			</g>
			<g id="XMLID_322_">
				<circle class="st5" cx="347.5" cy="141.7" r="1.3"/>
			</g>
			<g id="XMLID_347_">
				<path class="st2" d="M347.5,143.5c-1,0-1.8-0.8-1.8-1.8s0.8-1.8,1.8-1.8c1,0,1.8,0.8,1.8,1.8S348.4,143.5,347.5,143.5z
					 M347.5,140.9c-0.4,0-0.8,0.3-0.8,0.8c0,0.4,0.3,0.8,0.8,0.8c0.4,0,0.8-0.3,0.8-0.8C348.2,141.3,347.9,140.9,347.5,140.9z"/>
			</g>
		</g>
		<g id="XMLID_146_">
			<g id="XMLID_418_">
				<circle class="st3" cx="369.1" cy="40.5" r="18.9"/>
			</g>
			<g id="XMLID_317_">
				<path class="st2" d="M369.1,60c-10.7,0-19.4-8.7-19.4-19.4c0-10.7,8.7-19.4,19.4-19.4c10.7,0,19.4,8.7,19.4,19.4
					C388.5,51.3,379.8,60,369.1,60z M369.1,22.1c-10.2,0-18.4,8.3-18.4,18.4c0,10.2,8.3,18.4,18.4,18.4c10.2,0,18.4-8.3,18.4-18.4
					C387.5,30.4,379.3,22.1,369.1,22.1z"/>
			</g>
			<g id="XMLID_419_">
				<circle class="st5" cx="369.1" cy="40.5" r="16.7"/>
			</g>
			<g id="XMLID_150_">
				<path class="st2" d="M369.1,57.8c-9.5,0-17.2-7.7-17.2-17.2c0-9.5,7.7-17.2,17.2-17.2c9.5,0,17.2,7.7,17.2,17.2
					C386.3,50,378.6,57.8,369.1,57.8z M369.1,24.3c-8.9,0-16.2,7.3-16.2,16.2c0,8.9,7.3,16.2,16.2,16.2c8.9,0,16.2-7.3,16.2-16.2
					C385.3,31.6,378,24.3,369.1,24.3z"/>
			</g>
			<g id="XMLID_149_">
				
					<rect x="364.1" y="33.3" transform="matrix(4.899941e-03 -1 1 4.899941e-03 333.4951 402.7435)" class="st2" width="10.1" height="1"/>
			</g>
			<g id="XMLID_148_">
				
					<rect x="363" y="43.2" transform="matrix(0.7105 -0.7037 0.7037 0.7105 75.1362 270.1223)" class="st2" width="5.7" height="1"/>
			</g>
			<g id="XMLID_151_">
				<circle class="st1" cx="369.1" cy="40.5" r="1.7"/>
			</g>
			<g id="XMLID_147_">
				<path class="st2" d="M369.1,42.7c-1.2,0-2.2-1-2.2-2.2c0-1.2,1-2.2,2.2-2.2c1.2,0,2.2,1,2.2,2.2
					C371.3,41.7,370.3,42.7,369.1,42.7z M369.1,39.4c-0.7,0-1.2,0.5-1.2,1.2c0,0.7,0.5,1.2,1.2,1.2c0.7,0,1.2-0.5,1.2-1.2
					C370.3,39.9,369.7,39.4,369.1,39.4z"/>
			</g>
		</g>
		<g id="XMLID_139_">
			<g>
				<rect x="218.5" y="72.8" class="st8" width="7" height="8.7"/>
			</g>
			<g>
				<rect x="218.5" y="72.8" class="st0" width="7" height="4"/>
			</g>
			<g>
				<path class="st2" d="M226,82h-8v-9.7h8V82z M219,81h6v-7.7h-6V81z"/>
			</g>
			<g>
				<rect x="271" y="72.8" class="st8" width="7" height="8.7"/>
			</g>
			<g>
				<rect x="271" y="72.8" class="st0" width="7" height="4"/>
			</g>
			<g>
				<path class="st2" d="M278.5,82h-8v-9.7h8V82z M271.5,81h6v-7.7h-6V81z"/>
			</g>
			<g id="XMLID_263_">
				<rect x="211.3" y="69.1" class="st10" width="74.1" height="4.9"/>
			</g>
			<g id="XMLID_318_">
				<rect x="211.3" y="71.6" class="st8" width="74.1" height="2.5"/>
			</g>
			<g id="XMLID_275_">
				<path class="st2" d="M285.9,74.6h-75.1v-5.9h75.1V74.6z M211.8,73.6h73.1v-3.9h-73.1V73.6z"/>
			</g>
			<g id="XMLID_416_">
				
					<rect x="256" y="36.9" transform="matrix(0.8907 -0.4546 0.4546 0.8907 4.1009 123.2802)" class="st7" width="4.8" height="32.4"/>
			</g>
			<g id="XMLID_417_">
				
					<rect x="256.1" y="37.5" transform="matrix(0.8907 -0.4547 0.4547 0.8907 3.7109 122.8282)" class="st13" width="2.2" height="32.4"/>
			</g>
			<g id="XMLID_272_">
				<path class="st2" d="M263.4,69.3l-15.2-29.7l5.2-2.6l15.2,29.7L263.4,69.3z M249.5,40l14.3,28l3.4-1.7l-14.3-28L249.5,40z"/>
			</g>
			<g id="XMLID_389_">
				<rect x="235" y="39.4" class="st1" width="7.5" height="29.5"/>
			</g>
			<g id="XMLID_267_">
				<path class="st2" d="M243,69.3h-8.5V38.9h8.5V69.3z M235.5,68.3h6.5V39.9h-6.5V68.3z"/>
			</g>
			<g id="XMLID_319_">
				<rect x="218.6" y="40.4" class="st7" width="8.6" height="28.4"/>
			</g>
			<g id="XMLID_265_">
				<path class="st2" d="M227.7,69.3h-9.6V39.9h9.6V69.3z M219.1,68.3h7.6V40.9h-7.6V68.3z"/>
			</g>
			<g id="XMLID_320_">
				<rect x="228.7" y="36.4" class="st3" width="4.8" height="32.4"/>
			</g>
			<g id="XMLID_264_">
				<path class="st2" d="M234,69.3h-5.8V35.9h5.8V69.3z M229.2,68.3h3.8V36.9h-3.8V68.3z"/>
			</g>
			<g id="XMLID_415_">
				<rect x="243.7" y="39.4" class="st8" width="5.1" height="29.5"/>
			</g>
			<g id="XMLID_262_">
				<path class="st2" d="M249.4,69.3h-6.1V38.9h6.1V69.3z M244.2,68.3h4.1V39.9h-4.1V68.3z"/>
			</g>
			<g id="XMLID_261_">
				<rect x="220.7" y="43.3" class="st2" width="4.4" height="1"/>
			</g>
			<g id="XMLID_260_">
				<rect x="220.7" y="46.8" class="st2" width="4.4" height="1"/>
			</g>
			<g id="XMLID_259_">
				<rect x="220.7" y="50.3" class="st2" width="4.4" height="1"/>
			</g>
			<g id="XMLID_145_">
				<rect x="220.7" y="53.8" class="st2" width="4.4" height="1"/>
			</g>
			<g id="XMLID_144_">
				<rect x="220.7" y="57.4" class="st2" width="4.4" height="1"/>
			</g>
			<g id="XMLID_143_">
				<rect x="220.7" y="60.9" class="st2" width="4.4" height="1"/>
			</g>
			<g id="XMLID_142_">
				<rect x="220.7" y="64.4" class="st2" width="4.4" height="1"/>
			</g>
			<g id="XMLID_414_">
				<circle class="st5" cx="238.7" cy="44.6" r="2.6"/>
			</g>
			<g id="XMLID_390_">
				<circle class="st5" cx="238.7" cy="62.3" r="2.6"/>
			</g>
			<g id="XMLID_141_">
				<path class="st2" d="M238.7,47.8c-1.7,0-3.1-1.4-3.1-3.1c0-1.7,1.4-3.1,3.1-3.1c1.7,0,3.1,1.4,3.1,3.1
					C241.9,46.4,240.5,47.8,238.7,47.8z M238.7,42.5c-1.2,0-2.1,1-2.1,2.1c0,1.2,1,2.1,2.1,2.1c1.2,0,2.1-1,2.1-2.1
					C240.9,43.5,239.9,42.5,238.7,42.5z"/>
			</g>
			<g id="XMLID_140_">
				<path class="st2" d="M238.7,65.4c-1.7,0-3.1-1.4-3.1-3.1c0-1.7,1.4-3.1,3.1-3.1c1.7,0,3.1,1.4,3.1,3.1
					C241.9,64,240.5,65.4,238.7,65.4z M238.7,60.1c-1.2,0-2.1,1-2.1,2.1c0,1.2,1,2.1,2.1,2.1c1.2,0,2.1-1,2.1-2.1
					C240.9,61.1,239.9,60.1,238.7,60.1z"/>
			</g>
		</g>
		<g id="XMLID_284_">
			<g>
				<rect x="250.2" y="199.4" class="st4" width="5.3" height="13.6"/>
			</g>
			<g id="XMLID_308_">
				<rect x="249.7" y="199.4" class="st2" width="1" height="11.1"/>
			</g>
			<g id="XMLID_306_">
				<rect x="255" y="199.4" class="st2" width="1" height="11.1"/>
			</g>
			<g>
				<rect x="247.2" y="193.5" class="st3" width="10.7" height="5.6"/>
			</g>
			<g>
				<rect x="252.7" y="193.5" class="st4" width="5.2" height="5.6"/>
			</g>
			<g id="XMLID_307_">
				<polygon class="st2" points="258.4,199.6 246.7,199.6 246.7,193.5 247.7,193.5 247.7,198.6 257.4,198.6 257.4,193.5 
					258.4,193.5 				"/>
			</g>
			<g>
				<rect x="233.1" y="188.6" class="st3" width="39.6" height="4.9"/>
			</g>
			<g id="XMLID_301_">
				<polygon class="st2" points="273.2,194 232.6,194 232.6,188.6 233.6,188.6 233.6,193 272.2,193 272.2,188.6 273.2,188.6 				"/>
			</g>
			<g>
				<path class="st1" d="M276.1,178.3h-17.6h-11.8h-17.6c-2.8,0-5.1,2.3-5.1,5.1c0,2.8,2.3,5.1,5.1,5.1h47c2.8,0,5.1-2.3,5.1-5.1
					C281.1,180.6,278.9,178.3,276.1,178.3z"/>
			</g>
			<g id="XMLID_305_">
				<path class="st2" d="M276.1,188.9h-47c-3.1,0-5.6-2.5-5.6-5.6c0-3.1,2.5-5.6,5.6-5.6h17.6v1h-17.6c-2.5,0-4.6,2.1-4.6,4.6
					c0,2.5,2.1,4.6,4.6,4.6h47c2.5,0,4.6-2.1,4.6-4.6c0-2.5-2.1-4.6-4.6-4.6h-17.6v-1h17.6c3.1,0,5.6,2.5,5.6,5.6
					C281.6,186.4,279.1,188.9,276.1,188.9z"/>
			</g>
			<g>
				<path class="st3" d="M267.8,131.2h-30.4c-5,0-9.1,4.1-9.1,9.1v18.1c0,5,4.1,9.1,9.1,9.1h9.3h11.7h9.4c5,0,9.1-4.1,9.1-9.1v-18.1
					C276.8,135.3,272.8,131.2,267.8,131.2z"/>
			</g>
			<g id="XMLID_304_">
				<path class="st2" d="M267.8,167.9h-9.4v-1h9.4c4.7,0,8.6-3.8,8.6-8.6v-18.1c0-4.7-3.8-8.6-8.6-8.6h-30.4c-4.7,0-8.6,3.8-8.6,8.6
					v18.1c0,4.7,3.8,8.6,8.6,8.6h9.3v1h-9.3c-5.3,0-9.6-4.3-9.6-9.6v-18.1c0-5.3,4.3-9.6,9.6-9.6h30.4c5.3,0,9.6,4.3,9.6,9.6v18.1
					C277.3,163.7,273,167.9,267.8,167.9z"/>
			</g>
			<g id="XMLID_400_">
				<path class="st5" d="M257.9,183.4h-10.7v-29.3c0-3,2.4-5.4,5.4-5.4l0,0c3,0,5.4,2.4,5.4,5.4V183.4z"/>
			</g>
			<g>
				<path class="st6" d="M252.7,183.4h5.2v-29.3c0-2.9-2.3-5.3-5.2-5.3V183.4z"/>
			</g>
			<g id="XMLID_302_">
				<path class="st2" d="M258.4,183.9h-11.7v-29.8c0-3.2,2.6-5.9,5.9-5.9s5.9,2.6,5.9,5.9V183.9z M247.7,182.9h9.7v-28.8
					c0-2.7-2.2-4.9-4.9-4.9c-2.7,0-4.9,2.2-4.9,4.9V182.9z"/>
			</g>
			<g id="XMLID_401_">
				<rect x="234.9" y="210.4" class="st3" width="36.3" height="5.1"/>
			</g>
			<g id="XMLID_300_">
				<path class="st2" d="M271.7,216h-37.3v-6.1h37.3V216z M235.4,215h35.3v-4.1h-35.3V215z"/>
			</g>
			<g id="XMLID_405_">
				<circle class="st4" cx="237.5" cy="219.1" r="3.6"/>
			</g>
			<g id="XMLID_404_">
				<circle class="st4" cx="247.5" cy="219.1" r="3.6"/>
			</g>
			<g id="XMLID_403_">
				<circle class="st4" cx="258.1" cy="219.1" r="3.6"/>
			</g>
			<g id="XMLID_402_">
				<circle class="st4" cx="268" cy="219.1" r="3.6"/>
			</g>
			<g id="XMLID_299_">
				<path class="st2" d="M237.5,223.1c-2.2,0-4.1-1.8-4.1-4.1c0-2.2,1.8-4.1,4.1-4.1s4.1,1.8,4.1,4.1
					C241.6,221.3,239.8,223.1,237.5,223.1z M237.5,216c-1.7,0-3.1,1.4-3.1,3.1c0,1.7,1.4,3.1,3.1,3.1c1.7,0,3.1-1.4,3.1-3.1
					C240.6,217.4,239.2,216,237.5,216z"/>
			</g>
			<g id="XMLID_298_">
				<path class="st2" d="M247.5,223.1c-2.2,0-4.1-1.8-4.1-4.1c0-2.2,1.8-4.1,4.1-4.1c2.2,0,4.1,1.8,4.1,4.1
					C251.6,221.3,249.8,223.1,247.5,223.1z M247.5,216c-1.7,0-3.1,1.4-3.1,3.1c0,1.7,1.4,3.1,3.1,3.1c1.7,0,3.1-1.4,3.1-3.1
					C250.6,217.4,249.2,216,247.5,216z"/>
			</g>
			<g id="XMLID_297_">
				<path class="st2" d="M258.1,223.1c-2.2,0-4.1-1.8-4.1-4.1c0-2.2,1.8-4.1,4.1-4.1c2.2,0,4.1,1.8,4.1,4.1
					C262.1,221.3,260.3,223.1,258.1,223.1z M258.1,216c-1.7,0-3.1,1.4-3.1,3.1c0,1.7,1.4,3.1,3.1,3.1s3.1-1.4,3.1-3.1
					C261.1,217.4,259.8,216,258.1,216z"/>
			</g>
			<g id="XMLID_296_">
				<path class="st2" d="M268,223.1c-2.2,0-4.1-1.8-4.1-4.1c0-2.2,1.8-4.1,4.1-4.1c2.2,0,4.1,1.8,4.1,4.1
					C272.1,221.3,270.3,223.1,268,223.1z M268,216c-1.7,0-3.1,1.4-3.1,3.1c0,1.7,1.4,3.1,3.1,3.1c1.7,0,3.1-1.4,3.1-3.1
					C271.1,217.4,269.7,216,268,216z"/>
			</g>
		</g>
		<g>
			<g>
				<polygon class="st5" points="402.6,62 402.6,87.4 415.3,74.7 				"/>
			</g>
			<g>
				<polygon class="st10" points="428,62 402.6,62 415.3,74.7 				"/>
			</g>
			<g>
				<polygon class="st10" points="402.6,87.4 428,87.4 415.3,74.7 				"/>
			</g>
			<g>
				<polygon class="st5" points="415.3,74.7 428,87.4 428,62 				"/>
			</g>
			<g>
				<rect x="409.2" y="68.6" class="st7" width="12.2" height="12.2"/>
			</g>
			<g>
				<path class="st2" d="M421.9,81.3h-13.2V68.1h13.2V81.3z M409.7,80.3h11.2V69.1h-11.2V80.3z"/>
			</g>
			<g>
				<path class="st2" d="M428.5,87.9h-26.3V61.5h26.3V87.9z M403.1,86.9h24.3V62.5h-24.3V86.9z"/>
			</g>
		</g>
		<g>
			<g>
				<polygon class="st5" points="402.6,127.9 402.6,153.2 415.3,140.6 				"/>
			</g>
			<g>
				<polygon class="st10" points="428,127.9 402.6,127.9 415.3,140.6 				"/>
			</g>
			<g>
				<polygon class="st10" points="402.6,153.2 428,153.2 415.3,140.6 				"/>
			</g>
			<g>
				<polygon class="st5" points="415.3,140.6 428,153.2 428,127.9 				"/>
			</g>
			<g>
				<rect x="409.2" y="134.5" class="st7" width="12.2" height="12.2"/>
			</g>
			<g>
				<path class="st2" d="M421.9,147.2h-13.2V134h13.2V147.2z M409.7,146.2h11.2V135h-11.2V146.2z"/>
			</g>
			<g>
				<path class="st2" d="M428.5,153.7h-26.3v-26.3h26.3V153.7z M403.1,152.7h24.3v-24.3h-24.3V152.7z"/>
			</g>
		</g>
		<g>
			<g>
				<polygon class="st5" points="402.6,95 402.6,120.3 415.3,107.6 				"/>
			</g>
			<g>
				<polygon class="st10" points="428,95 402.6,95 415.3,107.6 				"/>
			</g>
			<g>
				<polygon class="st10" points="402.6,120.3 428,120.3 415.3,107.6 				"/>
			</g>
			<g>
				<polygon class="st5" points="415.3,107.6 428,120.3 428,95 				"/>
			</g>
			<g>
				<rect x="409.2" y="101.6" class="st1" width="12.2" height="12.2"/>
			</g>
			<g>
				<path class="st2" d="M421.9,114.2h-13.2v-13.2h13.2V114.2z M409.7,113.2h11.2v-11.2h-11.2V113.2z"/>
			</g>
			<g>
				<path class="st2" d="M428.5,120.8h-26.3V94.5h26.3V120.8z M403.1,119.8h24.3V95.5h-24.3V119.8z"/>
			</g>
		</g>
	</g>
	<g id="text">
	</g>
</g>
</svg>
