<svg height="35" viewBox="0 -22 512.00047 512" width="35"
                                xmlns="http://www.w3.org/2000/svg">
                                <path
                                    d="m467.582031 460.132812-423 .316407c-5.523437.003906-10.003906-4.472657-10.007812-9.992188l-.160157-218.851562c-.003906-5.523438 4.46875-10.003907 9.992188-10.007813l423-.3125c5.523438-.003906 10.003906 4.46875 10.007812 9.992188l.160157 218.851562c.003906 5.519532-4.46875 10-9.992188 10.003906zm0 0"
                                    fill="#fd6069" />
                                <path
                                    d="m467.582031 460.132812-211.503906.160157-.175781-238.851563 211.503906-.15625c5.519531-.003906 10 4.46875 10.003906 9.992188l.164063 218.851562c.003906 5.519532-4.46875 10-9.992188 10.003906zm0 0"
                                    fill="#fc3e4b" />
                                <path
                                    d="m256 279.347656c-66.699219-49.257812-146.492188-51.421875-189-48.15625v170.316406c0 5.699219 4.746094 10.25 10.433594 9.992188 44.253906-2.019531 116.992187 3.320312 178.566406 48.792969 61.574219-45.472657 134.3125-50.8125 178.566406-48.792969 5.6875.257812 10.433594-4.292969 10.433594-9.992188v-170.316406c-42.507812-3.265625-122.300781-1.101562-189 48.15625zm0 0"
                                    fill="#9cc6db" />
                                <path
                                    d="m256 279.347656c-66.699219-49.257812-146.492188-51.421875-189-48.15625v170.316406c0 5.699219 4.746094 10.25 10.433594 9.992188 44.253906-2.019531 116.992187 3.320312 178.566406 48.792969zm0 0"
                                    fill="#bddff4" />
                                <path
                                    d="m67 205.339844v160.925781c0 5.695313 4.746094 10.246094 10.433594 9.988281 44.253906-2.019531 116.992187 3.320313 178.566406 48.792969v-180.945313c-62.015625-45.800781-135.359375-50.886718-179.515625-48.746093-5.316406.253906-9.484375 4.664062-9.484375 9.984375zm0 0"
                                    fill="#e3f4ff" />
                                <path
                                    d="m445 205.339844v160.925781c0 5.695313-4.742188 10.246094-10.433594 9.988281-44.253906-2.019531-116.992187 3.320313-178.566406 48.792969v-180.945313c62.019531-45.800781 135.359375-50.886718 179.519531-48.746093 5.3125.253906 9.480469 4.664062 9.480469 9.984375zm0 0"
                                    fill="#bddff4" />
                                <path
                                    d="m346.082031 338.417969c0 14.589843-30.011719 26.800781-70.171875 29.882812h-.007812c-6.402344.488281-13.0625.75-19.902344.75s-13.5-.261719-19.898438-.75h-.011718c-40.160156-3.082031-70.167969-15.292969-70.167969-29.882812 0-9 11.398437-17.089844 29.550781-22.6875 15.988282-4.941407 37.21875-7.949219 60.527344-7.949219 23.3125 0 44.539062 3.007812 60.53125 7.949219 18.148438 5.597656 29.550781 13.6875 29.550781 22.6875zm0 0"
                                    fill="#618baa" />
                                <path
                                    d="m504.5 72.480469-117.140625 151.589843-70.828125 91.660157-40.621094 52.570312h-.011718c-6.398438.488281-13.058594.75-19.898438.75s-13.5-.261719-19.898438-.75h-.011718l-40.621094-52.570312-70.828125-91.660157-117.140625-151.589843zm0 0"
                                    fill="#a6ffee" />
                                <path
                                    d="m347.390625 275.789062-30.859375 39.941407-40.628906 52.570312c-6.402344.488281-13.0625.75-19.902344.75s-13.5-.261719-19.898438-.75l-40.628906-52.570312-30.863281-39.941407c-16.296875-21.097656-1.269531-51.71875 25.402344-51.71875h131.980469c26.667968 0 41.699218 30.621094 25.398437 51.71875zm0 0"
                                    fill="#fc3e4b" />
                                <path
                                    d="m256 244.398438c-11.921875 0-21.585938-9.664063-21.585938-21.589844v-40.707032h43.175782v40.707032c0 11.925781-9.664063 21.589844-21.589844 21.589844zm0 0"
                                    fill="#fd6069" />
                                <path
                                    d="m349.671875 111.726562c0 10.957032-8.882813 19.839844-19.839844 19.839844-10.960937 0-19.84375-8.882812-19.84375-19.839844 0-10.960937 8.882813-19.84375 19.84375-19.84375 10.957031 0 19.839844 8.882813 19.839844 19.84375zm0 0"
                                    fill="#fecbaa" />
                                <path
                                    d="m202.011719 111.726562c0 10.957032-8.882813 19.839844-19.839844 19.839844-10.960937 0-19.84375-8.882812-19.84375-19.839844 0-10.960937 8.882813-19.84375 19.84375-19.84375 10.957031 0 19.839844 8.882813 19.839844 19.84375zm0 0"
                                    fill="#fecbaa" />
                                <path
                                    d="m191.28125 76.324219 5.625 70.957031c2.441406 30.824219 28.171875 54.59375 59.09375 54.59375s56.652344-23.769531 59.09375-54.59375l5.625-70.957031zm0 0"
                                    fill="#fedfc5" />
                                <path
                                    d="m331.597656 95.449219h-151.195312c-5.828125 0-10.550782-4.726563-10.550782-10.554688 0-42.742187 34.648438-77.394531 77.390626-77.394531h17.515624c42.742188 0 77.390626 34.652344 77.390626 77.394531.003906 5.828125-4.722657 10.554688-10.550782 10.554688zm0 0"
                                    fill="#bddff4" />
                                <path
                                    d="m342.152344 84.894531c0 2.910157-1.179688 5.550781-3.089844 7.460938-1.910156 1.910156-4.542969 3.089843-7.460938 3.089843h-20.21875c2.917969 0 5.546876-1.179687 7.457032-3.089843 1.910156-1.910157 3.089844-4.550781 3.089844-7.460938 0-42.738281-34.648438-77.390625-77.386719-77.390625h20.21875c42.738281 0 77.390625 34.652344 77.390625 77.390625zm0 0"
                                    fill="#9cc6db" />
                                <path
                                    d="m509.085938 66.546875c-3.277344-2.53125-7.988282-1.929687-10.519532 1.351563l-138.121094 178.730468c-.675781-2.691406-1.644531-5.347656-2.90625-7.921875-6.707031-13.65625-20.324218-22.140625-35.542968-22.140625h-36.90625v-13.863281c5.863281-2.839844 11.339844-6.539063 16.226562-11.054687 12.375-11.433594 19.925782-26.980469 21.257813-43.773438l.761719-9.609375c2.117187.519531 4.296874.800781 6.496093.800781 15.078125 0 27.34375-12.265625 27.34375-27.339844 0-7.699218-3.320312-14.984374-8.839843-20.097656.84375-2.082031 1.316406-4.351562 1.316406-6.734375 0-46.808593-38.082032-84.894531-84.894532-84.894531h-17.511718c-46.8125 0-84.894532 38.085938-84.894532 84.894531 0 2.367188.46875 4.621094 1.300782 6.695313-5.5625 5.09375-8.824219 12.316406-8.824219 20.136718 0 15.074219 12.265625 27.339844 27.34375 27.339844 2.203125 0 4.378906-.28125 6.496094-.800781l.761719 9.609375c1.332031 16.792969 8.882812 32.339844 21.257812 43.773438 4.886719 4.515624 10.359375 8.214843 16.226562 11.054687v13.863281h-36.90625c-15.214843 0-28.835937 8.484375-35.542968 22.144532-1.261719 2.570312-2.230469 5.226562-2.90625 7.921874l-138.121094-178.738281c-2.535156-3.277343-7.246094-3.878906-10.523438-1.347656-3.277343 2.535156-3.882812 7.242187-1.347656 10.519531l85.355469 110.453125c-3.613281.0625-7.21875.171875-10.800781.34375-9.320313.449219-16.621094 8.128907-16.621094 17.480469v8.742188l-15.097656.011718c-9.652344.007813-17.496094 7.863282-17.488282 17.515625l.160157 218.847657c.007812 9.644531 7.855469 17.488281 17.503906 17.488281h.011719l422.996094-.3125c9.652343-.007813 17.496093-7.863281 17.488281-17.515625l-.03125-41.890625c-.003907-4.140625-3.359375-7.492188-7.5-7.492188h-.003907c-4.144531 0-7.5 3.359375-7.496093 7.503907l.03125 41.890624c0 1.378907-1.117188 2.5-2.496094 2.503907l-186.429687.136719c53.179687-30.832032 111.429687-35.6875 153.078124-33.78125 4.820313.222656 9.378907-1.496094 12.863282-4.824219 3.4375-3.285157 5.410156-7.898438 5.410156-12.65625v-95.273438c0-4.144531-3.355469-7.5-7.5-7.5-4.140625 0-7.5 3.355469-7.5 7.5v60.027344c0 .9375-.484375 1.539063-.773438 1.816406-.285156.273438-.910156.722657-1.816406.679688-46.386718-2.109375-112.472656 3.789062-171.40625 41.984375v-34.300782c45.917969-1.28125 90.074219-14.285156 90.074219-38.027343 0-.257813-.007813-.515625-.019531-.78125 17.367187-3.773438 35.617187-6.035157 54.359375-6.699219 4.140625-.144531 7.378906-3.621094 7.230469-7.761719-.148438-4.140625-3.632813-7.378906-7.761719-7.226562-20.8125.734375-41.070313 3.363281-60.28125 7.769531-3.371094-3.519531-8.347657-7.050781-15.539063-10.339844 23.742188-7.296875 49.394532-11.480468 76.351563-12.4375 4.140625-.144531 7.378906-3.621094 7.230469-7.757812-.144532-4.050782-3.46875-7.234375-7.488282-7.234375-.089844 0-.179687 0-.269531.003906-22.722656.804687-44.589844 3.804687-65.28125 8.9375l13.703125-17.730469c16.664062-3.480468 34.183594-5.578125 52.105469-6.214844 4.140625-.144531 7.375-3.621093 7.230469-7.761718-.148438-4.140625-3.632813-7.375-7.761719-7.226563-12.875.453125-25.558594 1.644531-37.910157 3.519531l12.8125-16.582031c8.402344-.972656 17.003907-1.636719 25.628907-1.945312 4.140625-.144531 7.375-3.621094 7.230469-7.757813-.148438-4.140625-3.636719-7.355468-7.761719-7.230468-4.191407.148437-8.378907.390624-12.546875.691406l18.65625-24.140625c7.195312-.113281 14.46875-.011719 21.65625.335937 1.316406.0625 2.347656 1.160156 2.347656 2.496094v66.371094c0 4.144531 3.355469 7.5 7.5 7.5s7.5-3.355469 7.5-7.5v-42.917969l14.910156-.011719h.003906c.898438 0 1.492188.460938 1.765626.730469.273437.273437.730468.867187.730468 1.769531l.105469 142.433594c.003906 4.140625 3.359375 7.496094 7.5 7.496094h.007813c4.140624-.003906 7.496093-3.363282 7.492187-7.507813l-.105469-142.433593c0-4.675782-1.824218-9.070313-5.132812-12.371094-3.304688-3.300782-7.695313-5.117188-12.363282-5.117188-.003906 0-.011718 0-.015624 0l-14.898438.011719v-8.453125c0-9.351562-7.300781-17.027344-16.621094-17.480469-3.585937-.171875-7.191406-.28125-10.796875-.34375l85.351563-110.449219c2.535156-3.277343 1.929687-7.988281-1.347656-10.523437zm-179.253907 57.519531c-1.863281 0-3.648437-.40625-5.277343-1.183594l1.578124-19.933593h5.464844c2.03125 0 3.980469-.355469 5.808594-.976563 2.988281 2.308594 4.769531 5.859375 4.769531 9.753906-.003906 6.804688-5.539062 12.339844-12.34375 12.339844zm-82.585937-109.066406h17.511718c38.539063 0 69.894532 31.355469 69.894532 69.894531 0 1.683594-1.371094 3.054688-3.054688 3.054688h-32.484375v-25.414063c0-4.140625-3.355469-7.5-7.5-7.5-4.140625 0-7.5 3.359375-7.5 7.5v25.414063h-5.945312v-15.734375c0-4.144532-3.359375-7.5-7.5-7.5-4.144531 0-7.5 3.355468-7.5 7.5v15.734375h-82.761719c-1.683594 0-3.054688-1.371094-3.054688-3.054688 0-38.539062 31.355469-69.894531 69.894532-69.894531zm-65.074219 109.066406c-6.808594 0-12.34375-5.535156-12.34375-12.339844 0-3.882812 1.785156-7.441406 4.773437-9.753906 1.824219.625 3.769532.976563 5.800782.976563h5.464844l1.582031 19.933593c-1.632813.777344-3.414063 1.183594-5.277344 1.183594zm22.210937 22.621094-3.46875-43.738281h110.171876l-3.46875 43.738281c-2.117188 26.742188-24.792969 47.6875-51.617188 47.6875s-49.5-20.945312-51.617188-47.6875zm51.617188 62.6875c4.78125 0 9.496094-.523438 14.089844-1.511719v14.949219c0 7.765625-6.320313 14.085938-14.089844 14.085938s-14.089844-6.320313-14.089844-14.085938v-14.949219c4.59375.988281 9.308594 1.511719 14.089844 1.511719zm-85.457031 61.824219c-5.867188-7.589844-6.84375-17.265625-2.617188-25.878907 4.230469-8.613281 12.484375-13.753906 22.078125-13.753906h38.257813c2.980469 9.421875 10.636719 16.78125 20.238281 19.347656v110.519532c-2.925781-.082032-5.773438-.207032-8.539062-.378906-.0625-.085938-.121094-.179688-.1875-.265626l-69.226563-89.582031c0-.003906 0-.003906-.003906-.007812zm48.765625 87.636719c-29.921875-4.75-45.882813-14.613282-45.882813-20.421876 0-3.363281 6.09375-9.035156 19.378907-13.875zm-144.808594-153.492188c0-1.339844 1.03125-2.4375 2.34375-2.5 7.183594-.34375 14.457031-.449219 21.660156-.332031l18.65625 24.140625c-4.167968-.300782-8.355468-.542969-12.546875-.695313-4.140625-.117187-7.613281 3.089844-7.761719 7.230469-.144531 4.140625 3.089844 7.613281 7.230469 7.761719 8.625.304687 17.226563.96875 25.628907 1.945312l12.8125 16.578125c-12.351563-1.871094-25.035157-3.0625-37.910157-3.519531-4.160156-.144531-7.613281 3.089844-7.761719 7.230469-.144531 4.140625 3.089844 7.613281 7.230469 7.761718 17.910157.632813 35.4375 2.722657 52.097657 6.203126l13.71875 17.75c-20.6875-5.136719-42.554688-8.144532-65.285157-8.949219-4.160156-.125-7.613281 3.089843-7.761719 7.226562-.144531 4.140625 3.089844 7.617188 7.230469 7.761719 26.972657.957031 52.617188 5.144531 76.359375 12.445312-7.1875 3.292969-12.15625 6.828126-15.519531 10.335938-19.222656-4.410156-39.488281-7.039062-60.308594-7.773438-4.160156-.152343-7.613281 3.089844-7.761719 7.226563-.148437 4.140625 3.089844 7.613281 7.230469 7.761719 18.742188.664062 36.992188 2.925781 54.355469 6.699218-.007812.265626-.015625.523438-.015625.78125 0 23.742188 44.15625 36.746094 90.078125 38.027344v34.328125c-23.566406-15.234375-50.230469-26.527343-79.476562-33.605469-4.027344-.96875-8.078126 1.5-9.054688 5.527344-.972656 4.023438 1.5 8.078125 5.527344 9.050782 31.035156 7.511718 58.933594 20.011718 83 37.152343v17.109375c-58.9375-38.199218-125.027344-44.117187-171.40625-42-.914063.042969-1.53125-.410156-1.816406-.683594-.289063-.277343-.773438-.878906-.773438-1.8125v-17.929687c1.074219.148437 2.167969.214844 3.273438.164063 18.226562-.828126 36.421874-.171876 54.0625 1.957031.308593.035156.609374.054687.910156.054687 3.738281 0 6.976562-2.796875 7.4375-6.601562.496094-4.113282-2.4375-7.851563-6.550782-8.347656-18.464843-2.226563-37.488281-2.917969-56.542968-2.046876-.917969.050782-1.535156-.410156-1.816406-.679687-.289063-.277344-.773438-.882813-.773438-1.816406zm-29.921875 247.605469c-1.378906 0-2.5-1.121094-2.503906-2.5l-.160157-218.847657c0-.902343.457032-1.496093.730469-1.769531.273438-.273437.863281-.734375 1.765625-.734375l15.089844-.011718v172.421874c0 4.757813 1.972656 9.371094 5.414062 12.660157 3.480469 3.328125 8.027344 5.042969 12.863282 4.820312 41.648437-1.90625 99.9375 2.957031 153.140625 33.820313zm389.648437-69.203125c1.109376.050781 2.199219-.011719 3.273438-.164063v17.925781c0 .9375-.484375 1.539063-.773438 1.816407-.285156.269531-.914062.726562-1.816406.679687-46.394531-2.113281-112.472656 3.804688-171.410156 42.003906v-17.105468c57.574219-41.03125 124.421875-47.265625 170.726562-45.15625zm-170.726562-132.832032c9.601562-2.566406 17.257812-9.925781 20.238281-19.347656h38.257813c9.59375 0 17.847656 5.140625 22.078125 13.753906 4.226562 8.613282 3.25 18.289063-2.617188 25.878907 0 .003906-.003906.003906-.003906.007812l-69.226563 89.582031c-.066406.085938-.125.179688-.1875.269532-2.765624.167968-5.613281.296875-8.539062.375zm75.074219 87.5c0 5.808594-15.960938 15.671876-45.878907 20.421876l26.5-34.292969c13.261719 4.824219 19.378907 10.40625 19.378907 13.871093zm0 0" />
                                <path
                                    d="m291.613281 287.257812h18.375c4.144531 0 7.5-3.355468 7.5-7.5 0-4.140624-3.355469-7.5-7.5-7.5h-18.375c-4.140625 0-7.5 3.359376-7.5 7.5 0 4.144532 3.359375 7.5 7.5 7.5zm0 0" />
                                <path
                                    d="m234.546875 120.742188c-.042969-4.140626-3.484375-7.472657-7.578125-7.421876h-.09375c-4.140625.042969-7.417969 3.4375-7.375 7.578126.042969 4.117187 3.4375 7.421874 7.546875 7.421874h.078125c4.140625-.042968 7.464844-3.4375 7.421875-7.578124zm0 0" />
                                <path
                                    d="m285.046875 128.320312h.078125c4.140625-.042968 7.464844-3.4375 7.421875-7.578124-.042969-4.113282-3.394531-7.421876-7.496094-7.421876-.027343 0-.054687 0-.082031 0h-.09375c-4.140625.042969-7.417969 3.4375-7.375 7.578126.042969 4.117187 3.4375 7.421874 7.546875 7.421874zm0 0" />
                                <path
                                    d="m283.625 149.246094c.652344-4.089844-2.132812-7.933594-6.222656-8.585938-4.101563-.648437-7.9375 2.132813-8.589844 6.222656-1.011719 6.335938-6.398438 10.933594-12.8125 10.933594s-11.800781-4.597656-12.8125-10.933594c-.652344-4.089843-4.492188-6.871093-8.589844-6.222656-4.089844.652344-6.875 4.496094-6.222656 8.585938 2.179688 13.65625 13.796875 23.570312 27.625 23.570312 13.824219 0 25.445312-9.914062 27.625-23.570312zm0 0" />
                                <path
                                    d="m404.933594 106.730469c.070312 0 .136718.003906.207031.003906 4.046875 0 7.382813-3.226563 7.492187-7.300781l.011719-.398438c.109375-4.140625-3.15625-7.585937-7.296875-7.695312-4.15625-.097656-7.585937 3.152344-7.699218 7.292968l-.007813.398438c-.113281 4.140625 3.152344 7.585938 7.292969 7.699219zm0 0" />
                                <path
                                    d="m405.441406 116.722656c-4.167968-.105468-7.59375 3.136719-7.714844 7.273438l-.015624.398437c-.117188 4.140625 3.136718 7.597657 7.277343 7.71875.074219 0 .152344.003907.226563.003907 4.039062 0 7.371094-3.214844 7.492187-7.28125l.011719-.398438c.121094-4.140625-3.136719-7.59375-7.277344-7.714844zm0 0" />
                                <path
                                    d="m410.171875 111.460938c-.121094 4.140624 3.136719 7.597656 7.277344 7.71875l.398437.011718c.074219.003906.148438.003906.222656.003906 4.042969 0 7.375-3.214843 7.496094-7.277343.121094-4.140625-3.136718-7.597657-7.277344-7.71875l-.398437-.011719c-4.167969-.128906-7.59375 3.132812-7.71875 7.273438zm0 0" />
                                <path
                                    d="m392.066406 119.253906.398438.011719c.074218.003906.152344.003906.226562.003906 4.039063 0 7.371094-3.214843 7.492188-7.28125.121094-4.140625-3.136719-7.59375-7.277344-7.714843l-.394531-.011719c-4.179688-.09375-7.597657 3.136719-7.71875 7.273437-.125 4.140625 3.132812 7.597656 7.273437 7.71875zm0 0" />
                                <path
                                    d="m146.539062 147.066406c-.070312-.003906-.140624-.003906-.207031-.003906-4.046875 0-7.382812 3.226562-7.492187 7.296875l-.011719.398437c-.113281 4.140626 3.152344 7.589844 7.292969 7.699219.070312 0 .140625.003907.207031.003907 4.046875 0 7.382813-3.226563 7.492187-7.300782l.011719-.394531c.113281-4.140625-3.15625-7.589844-7.292969-7.699219zm0 0" />
                                <path
                                    d="m146.195312 187.839844c.070313.003906.140626.003906.207032.003906 4.046875 0 7.382812-3.226562 7.492187-7.296875l.011719-.398437c.113281-4.140626-3.152344-7.589844-7.296875-7.699219-4.148437-.117188-7.585937 3.15625-7.695313 7.292969l-.011718.398437c-.113282 4.140625 3.152344 7.589844 7.292968 7.699219zm0 0" />
                                <path
                                    d="m159.035156 174.917969c.074219.003906.152344.003906.226563.003906 4.039062 0 7.371093-3.214844 7.492187-7.277344.121094-4.140625-3.136718-7.597656-7.277344-7.71875l-.394531-.011719c-4.179687-.097656-7.597656 3.136719-7.71875 7.273438-.121093 4.140625 3.136719 7.597656 7.277344 7.71875zm0 0" />
                                <path
                                    d="m125.980469 167.265625c-.125 4.136719 3.136719 7.59375 7.273437 7.714844l.398438.011719c.074218.003906.148437.003906.226562.003906 4.039063 0 7.371094-3.214844 7.492188-7.277344.121094-4.140625-3.136719-7.597656-7.277344-7.71875l-.394531-.011719c-4.183594-.117187-7.597657 3.132813-7.71875 7.277344zm0 0" />
                                <path
                                    d="m140.078125 23.78125c.070313 0 .136719.003906.207031.003906 4.046875 0 7.382813-3.226562 7.492188-7.296875l.011718-.398437c.113282-4.140625-3.152343-7.589844-7.292968-7.699219-.070313-.003906-.140625-.003906-.207032-.003906-4.046874 0-7.382812 3.226562-7.492187 7.296875l-.011719.398437c-.113281 4.140625 3.152344 7.589844 7.292969 7.699219zm0 0" />
                                <path
                                    d="m140.132812 49.164062c.078126.003907.152344.003907.226563.003907 4.039063 0 7.371094-3.214844 7.492187-7.28125l.011719-.394531c.121094-4.140626-3.136719-7.597657-7.273437-7.71875-4.148438-.089844-7.597656 3.136718-7.71875 7.277343l-.011719.394531c-.125 4.140626 3.136719 7.597657 7.273437 7.71875zm0 0" />
                                <path
                                    d="m145.320312 28.53125c-.113281 4.140625 3.152344 7.589844 7.292969 7.699219l.398438.011719c.066406.003906.136719.003906.207031.003906 4.046875 0 7.382812-3.226563 7.492188-7.296875.113281-4.144531-3.15625-7.589844-7.296876-7.699219l-.394531-.011719c-.070312-.003906-.136719-.003906-.207031-.003906-4.046875 0-7.382812 3.226563-7.492188 7.296875zm0 0" />
                                <path
                                    d="m127.230469 36.304688.398437.011718c.070313.003906.136719.003906.207032.003906 4.046874 0 7.382812-3.226562 7.492187-7.296874.113281-4.140626-3.152344-7.589844-7.292969-7.699219l-.398437-.011719c-4.171875-.105469-7.589844 3.152344-7.699219 7.292969-.113281 4.140625 3.152344 7.589843 7.292969 7.699219zm0 0" />
                            </svg>